<svg id="Layer_1" enable-background="new 0 0 512 512" height="512" viewBox="0 0 512 512" width="512" xmlns="http://www.w3.org/2000/svg"><path clip-rule="evenodd" d="m256 512c140.997 0 256-115.003 256-256s-115.003-256-256-256-256 115.003-256 256 115.003 256 256 256z" fill="#f34235" fill-rule="evenodd"/><path d="m188.231 254.918v-101.162c0-37.36 30.409-67.756 67.776-67.756s67.762 30.396 67.762 67.756v101.162c0 37.373-30.395 67.776-67.762 67.776s-67.776-30.403-67.776-67.776zm169.286-69.21c-5.899 0-10.699 4.807-10.699 10.705v58.504c0 24.149-9.476 46.925-26.688 64.13-17.205 17.205-39.975 26.675-64.124 26.675-24.148 0-46.925-9.47-64.13-26.675-17.198-17.198-26.675-39.975-26.675-64.13v-58.504c0-5.899-4.8-10.705-10.699-10.705-5.912 0-10.726 4.807-10.726 10.705v58.504c0 58.268 44.637 106.3 101.511 111.715v31.928h-40.931c-7.565 0-13.723 6.152-13.723 13.723v13.717h130.753v-13.716c0-7.572-6.158-13.723-13.723-13.723h-40.951v-31.927c56.874-5.409 101.511-53.443 101.511-111.716v-58.504c0-5.899-4.8-10.706-10.706-10.706z" fill="#fff"/></svg>